<svg width="127" height="96" viewBox="0 0 127 96" fill="none" xmlns="http://www.w3.org/2000/svg">
<path d="M25.3872 23.8065C23.7507 23.1326 23.7314 20.8217 25.3565 20.1207L71.1917 0.348678C71.7067 0.126511 72.2913 0.130821 72.803 0.36056L116.841 20.1329C118.431 20.8464 118.411 23.1095 116.81 23.7957L72.7723 42.669C72.2783 42.8807 71.7199 42.8847 71.223 42.6801L25.3872 23.8065Z" fill="#496AF1"/>
<path d="M59.1516 49.7377C60.674 50.4461 60.6985 52.6018 59.1927 53.3446L19.061 73.1435C17.7408 73.7948 16.1931 72.8447 16.1763 71.3726L15.7356 32.6945C15.7188 31.2224 17.2445 30.2373 18.5792 30.8584L59.1516 49.7377Z" fill="#496AF1"/>
<path d="M76 49.9236C76 49.0715 76.5399 48.3129 77.3451 48.0339L123.845 31.92C125.144 31.4698 126.5 32.4347 126.5 33.8098V74.6284C126.5 75.4549 125.991 76.1963 125.22 76.4941L78.7204 94.4495C77.41 94.9555 76 93.9885 76 92.5838V49.9236Z" fill="#496AF1"/>
</svg>
