<svg width="196" height="193" viewBox="0 0 196 193" fill="none" xmlns="http://www.w3.org/2000/svg">
<path fill-rule="evenodd" clip-rule="evenodd" d="M196 95.0751C192.547 96.0041 188.914 96.5 185.162 96.5H141.348C118.695 96.5 100.33 114.583 100.33 136.889V184.623C100.33 187.495 100.026 190.297 99.4475 193C98.5037 189.6 98 186.022 98 182.328V139.185C98 116.878 79.636 98.7948 56.9827 98.7948H8.5076C5.5906 98.7948 2.74472 98.4947 0 97.9253C3.45243 96.996 7.08643 96.5 10.8381 96.5H54.6522C77.3054 96.5 95.6696 78.417 95.6696 56.1105V8.37734C95.6696 5.505 95.974 2.70269 96.5529 0C97.4964 3.3996 98 6.97798 98 10.6722V53.8156C98 76.1222 116.364 94.2052 139.018 94.2052H187.493C190.409 94.2052 193.255 94.5051 196 95.0751Z" fill="#F3FE00"/>
</svg>
